<svg id="ba2fcdda-33f6-4106-8e40-31a393162ff4" data-name="Layer 1" xmlns="http://www.w3.org/2000/svg" viewBox="0 0 98 97.99"><defs><style>.be0c3942-11d7-45f9-b8d8-5b12aa3dea74{fill:#6a3d9a;}</style></defs><title>ie_uploading</title><g id="ff58858e-675e-40ea-89ad-f5d9ad2bc645" data-name="a46ff7b0-e9a6-4d03-9540-1aaed5f75976"><g id="ab6698b9-319f-4121-acf4-4549c9b626e4" data-name="b97cf18b-78b8-4bbb-894d-fff1bf134811"><path class="be0c3942-11d7-45f9-b8d8-5b12aa3dea74" d="M56.66,73.49H41.34a4.6,4.6,0,0,1-4.59-4.59h0V36.74H20a3.83,3.83,0,0,1-2.7-6.53L46.38,1.08a3.69,3.69,0,0,1,5.22,0h0L80.74,30.21a3.84,3.84,0,0,1,0,5.42A3.79,3.79,0,0,1,78,36.74H61.25V68.89a4.6,4.6,0,0,1-4.58,4.6ZM98,72V93.39A4.59,4.59,0,0,1,93.43,98H4.59A4.59,4.59,0,0,1,0,93.41V72a4.58,4.58,0,0,1,4.57-4.59h26v1.53A10.73,10.73,0,0,0,41.34,79.61H56.66A10.73,10.73,0,0,0,67.38,68.89V67.36h26A4.58,4.58,0,0,1,98,71.9ZM74.27,88.8a3.83,3.83,0,1,0-3.83,3.83A3.82,3.82,0,0,0,74.27,88.8Zm12.25,0a3.83,3.83,0,1,0-3.83,3.83A3.82,3.82,0,0,0,86.52,88.8Z"/></g></g></svg>